<?xml version="1.0" encoding="utf-8"?><svg xmlns="http://www.w3.org/2000/svg" xmlns:xlink="http://www.w3.org/1999/xlink"><symbol viewBox="0 0 60 59" id="icon-fb" xmlns="http://www.w3.org/2000/svg"><path d="M29.928.117C13.856.117.706 13.291.706 29.516c0 14.67 10.695 26.845 24.663 29.046V38.024h-7.422v-8.509h7.422v-6.483c0-7.365 4.354-11.414 11.046-11.414 3.185 0 6.517.558 6.517.558v7.247H39.25c-3.624 0-4.764 2.259-4.764 4.577v5.515h8.124l-1.315 8.509h-6.809v20.538a29.193 29.193 0 0017.68-9.946 29.41 29.41 0 006.984-19.1C59.15 13.29 46 .116 29.928.116z"/></symbol><symbol viewBox="0 0 59 59" id="icon-instagram" xmlns="http://www.w3.org/2000/svg"><path d="M24.482 29.222a5.593 5.593 0 1011.186 0 5.593 5.593 0 00-11.186 0z"/><path d="M16.994 19.326a5.2 5.2 0 011.255-1.93 5.195 5.195 0 011.93-1.255c.59-.23 1.48-.503 3.115-.577 1.77-.08 2.3-.098 6.78-.098 4.482 0 5.012.017 6.782.098 1.636.074 2.524.348 3.115.577a5.191 5.191 0 011.93 1.256c.557.54.986 1.2 1.255 1.929.23.591.503 1.48.578 3.116.08 1.77.098 2.3.098 6.78 0 4.481-.018 5.012-.098 6.781-.075 1.636-.348 2.525-.578 3.116a5.201 5.201 0 01-1.255 1.93c-.541.557-1.2.986-1.93 1.255-.59.23-1.48.503-3.115.577-1.77.081-2.3.098-6.78.098-4.482 0-5.013-.017-6.781-.098-1.636-.074-2.525-.348-3.116-.578a5.557 5.557 0 01-3.185-3.184c-.23-.591-.503-1.48-.578-3.116-.08-1.77-.098-2.3-.098-6.78 0-4.481.017-5.012.098-6.781.075-1.636.348-2.525.578-3.116zm13.08 18.513a8.617 8.617 0 100-17.233 8.616 8.616 0 100 17.233zm-8.956-15.56a2.014 2.014 0 100-4.028 2.014 2.014 0 000 4.028z"/><path d="M30.075 0c16.137 0 29.222 13.086 29.222 29.222 0 16.137-13.085 29.223-29.222 29.223S.853 45.359.853 29.222C.853 13.086 13.938 0 30.075 0zM13.396 36.14c.081 1.787.365 3.006.78 4.074a8.58 8.58 0 004.908 4.907c1.067.415 2.287.698 4.072.78 1.79.082 2.361.101 6.919.101 4.557 0 5.128-.02 6.918-.1 1.786-.083 3.006-.366 4.073-.78a8.221 8.221 0 002.972-1.937 8.223 8.223 0 001.935-2.971c.415-1.067.7-2.287.78-4.073.083-1.79.102-2.362.102-6.919 0-4.557-.02-5.128-.101-6.918-.081-1.786-.365-3.006-.78-4.073a8.221 8.221 0 00-1.936-2.972 8.219 8.219 0 00-2.972-1.936c-1.067-.414-2.287-.698-4.073-.78-1.79-.081-2.361-.1-6.918-.1s-5.129.019-6.918.101c-1.786.081-3.006.365-4.073.779a8.226 8.226 0 00-2.973 1.936 8.221 8.221 0 00-1.935 2.972c-.415 1.067-.699 2.287-.78 4.073-.082 1.79-.101 2.361-.101 6.918s.02 5.129.101 6.918z"/></symbol><symbol fill="none" viewBox="0 0 40 40" id="icon-telegram" xmlns="http://www.w3.org/2000/svg"><path d="M20 40c11.046 0 20-8.954 20-20S31.046 0 20 0 0 8.954 0 20s8.954 20 20 20z" fill="url(#cpaint0_linear)"/><path fill-rule="evenodd" clip-rule="evenodd" d="M9.053 19.789l11.664-5.024c5.554-2.31 6.708-2.712 7.46-2.725.166-.003.536.038.775.233.203.164.258.386.285.541.027.156.06.51.033.788-.3 3.162-1.603 10.837-2.265 14.379-.28 1.498-.832 2-1.367 2.05-1.162.107-2.044-.767-3.169-1.505l-4.463-2.998c-1.975-1.301-.695-2.016.43-3.185.295-.306 5.413-4.96 5.512-5.383.012-.053.023-.25-.093-.354-.117-.104-.29-.068-.415-.04-.176.04-2.988 1.899-8.436 5.576-.798.548-1.52.816-2.169.802-.714-.016-2.087-.404-3.108-.736-1.253-.407-2.248-.623-2.162-1.314.045-.36.541-.728 1.488-1.105z" fill="#fff"/><defs><linearGradient id="cpaint0_linear" x1="20" y1="0" x2="20" y2="39.703" gradientUnits="userSpaceOnUse"><stop stop-color="#2AABEE"/><stop offset="1" stop-color="#229ED9"/></linearGradient></defs></symbol><symbol viewBox="0 0 59 59" id="icon-vk" xmlns="http://www.w3.org/2000/svg"><path d="M29.222 0C13.084 0 0 13.083 0 29.222c0 16.14 13.084 29.223 29.222 29.223 16.139 0 29.223-13.084 29.223-29.223S45.36 0 29.222 0zm14.823 32.383c1.362 1.33 2.803 2.582 4.026 4.05.542.65 1.052 1.32 1.441 2.076.555 1.077.054 2.258-.91 2.322l-5.987-.002c-1.546.128-2.776-.495-3.814-1.553-.828-.842-1.596-1.742-2.394-2.613-.326-.357-.669-.694-1.078-.959-.816-.53-1.525-.368-1.993.484-.476.868-.585 1.83-.63 2.795-.066 1.412-.491 1.78-1.908 1.847-3.026.142-5.898-.318-8.567-1.843-2.355-1.346-4.177-3.246-5.765-5.397-3.092-4.192-5.46-8.793-7.588-13.527-.48-1.066-.129-1.636 1.047-1.659a168.46 168.46 0 015.862-.001c.795.012 1.321.467 1.627 1.218 1.056 2.598 2.35 5.07 3.972 7.362.433.61.874 1.219 1.502 1.65.694.476 1.222.318 1.55-.456.209-.492.299-1.018.344-1.545.156-1.807.174-3.612-.095-5.411-.167-1.126-.8-1.853-1.923-2.066-.571-.108-.488-.32-.21-.646.483-.565.935-.914 1.838-.914l6.765-.001c1.065.209 1.305.687 1.45 1.761l.005 7.517c-.012.416.209 1.647.955 1.92.598.196.993-.283 1.35-.662 1.622-1.72 2.778-3.752 3.813-5.855.457-.928.85-1.887 1.234-2.849.284-.71.727-1.06 1.529-1.048l6.514.007c.191 0 .386.002.576.035 1.098.188 1.399.66 1.06 1.731-.535 1.683-1.574 3.084-2.589 4.489-1.088 1.504-2.249 2.956-3.326 4.467-.99 1.381-.912 2.076.317 3.276z"/></symbol><symbol fill="none" viewBox="0 0 40 40" id="icon-whatsapp" xmlns="http://www.w3.org/2000/svg"><path d="M20 39.375c10.7 0 19.375-8.674 19.375-19.375C39.375 9.3 30.701.625 20 .625 9.3.625.625 9.299.625 20 .625 30.7 9.299 39.375 20 39.375z" fill="#30BF39"/><path d="M25.875 21.751c-.25-.125-1.563-.875-1.813-.938-.25-.124-.437-.124-.625.126-.187.25-.75.875-.875 1-.187.187-.312.187-.562.062-.25-.125-1.125-.438-2.125-1.438-.75-.75-1.313-1.624-1.438-1.937-.125-.25 0-.438.125-.563.125-.124.25-.312.438-.437.187-.125.187-.25.312-.438.125-.187.063-.312 0-.5-.062-.187-.562-1.5-.75-2.062-.187-.563-.437-.438-.562-.5-.188 0-.313-.063-.5-.063-.25 0-.563.125-.75.313-.25.25-1 .875-1 2.188 0 1.312.875 2.687 1 2.812.125.188 1.75 3.063 4.437 4.25 2.688 1.188 2.688.813 3.188.813S26 23.814 26.25 23.25c.25-.625.25-1.188.187-1.25-.125 0-.312-.063-.562-.25zm-5 6.438c-1.75 0-3.375-.5-4.813-1.438l-3.375 1.063 1.125-3.25c-1.062-1.5-1.687-3.313-1.687-5.188a8.802 8.802 0 018.812-8.813c4.875 0 8.75 3.938 8.75 8.813a8.802 8.802 0 01-8.812 8.813zm0-19.376c-5.813 0-10.563 4.75-10.563 10.563 0 1.938.5 3.813 1.5 5.438L9.875 30.5l5.875-1.875c1.562.875 3.312 1.313 5.125 1.313 5.812 0 10.562-4.75 10.562-10.563 0-5.813-4.687-10.563-10.562-10.563z" fill="#fff"/></symbol><symbol fill="none" viewBox="0 0 173 40" id="logo" xmlns="http://www.w3.org/2000/svg"><path d="M2.79 32.78l-2.5-3.645h1.806l1.698 2.607 1.711-2.607h1.793L4.79 32.78l2.635 3.807H5.633l-1.84-2.79-1.832 2.79H.168L2.79 32.78zm4.81-3.645h1.726l1.516 4.225a8 8 0 01.458 1.698h.054a7.05 7.05 0 01.222-.897c.108-.354.679-2.03 1.712-5.026h1.711l-3.187 8.443c-.58 1.55-1.545 2.325-2.897 2.325a4.58 4.58 0 01-1.024-.115v-1.253c.238.054.51.08.815.08.764 0 1.3-.442 1.61-1.327l.277-.7L7.6 29.134zm15.68 10.087h-1.475v-2.635h-5.107v2.635h-1.463v-3.861h.607c.53-.76.95-1.676 1.26-2.75.314-1.077.5-2.236.559-3.476h4.528v6.226h1.092v3.861zm-2.647-3.861v-5.013h-1.604a13.644 13.644 0 01-.54 2.735c-.269.899-.599 1.658-.99 2.278h3.134zm10.639-2.513c0 1.217-.312 2.167-.936 2.85-.625.683-1.494 1.024-2.608 1.024-.696 0-1.312-.157-1.846-.472a3.114 3.114 0 01-1.233-1.354c-.288-.589-.432-1.271-.432-2.048 0-1.209.31-2.152.93-2.83.62-.679 1.494-1.018 2.622-1.018 1.078 0 1.931.348 2.56 1.044.629.692.943 1.627.943 2.804zm-5.424 0c0 1.72.636 2.58 1.907 2.58 1.258 0 1.887-.86 1.887-2.58 0-1.703-.634-2.554-1.9-2.554-.665 0-1.148.22-1.45.66-.296.44-.444 1.072-.444 1.894zm10.922-.095v-3.618h1.476v3.618l2.871-3.618h1.671l-2.931 3.605 3.194 3.847h-1.745l-3.06-3.78v3.78h-1.475v-3.78l-3.053 3.78H31.98l3.187-3.847-2.924-3.605h1.67l2.858 3.618zm10.688 3.969c-1.16 0-2.067-.337-2.722-1.01-.652-.679-.978-1.611-.978-2.797 0-1.217.304-2.174.91-2.87.607-.697 1.44-1.045 2.5-1.045.984 0 1.76.299 2.331.896.57.598.856 1.42.856 2.466v.856H45.39c.022.723.218 1.28.586 1.671.369.387.887.58 1.557.58.44 0 .849-.04 1.226-.122a6.62 6.62 0 001.227-.417v1.287a4.86 4.86 0 01-1.173.39 7.187 7.187 0 01-1.354.115zm-.29-6.523c-.503 0-.907.16-1.213.479-.3.319-.48.784-.539 1.395h3.383c-.01-.616-.158-1.08-.445-1.395-.288-.32-.683-.479-1.186-.479zm7.992 6.523c-1.128 0-1.986-.328-2.574-.984-.584-.66-.876-1.606-.876-2.837 0-1.253.305-2.216.916-2.89.615-.674 1.503-1.011 2.662-1.011.786 0 1.493.146 2.122.438l-.478 1.274c-.67-.261-1.222-.391-1.658-.391-1.29 0-1.934.855-1.934 2.567 0 .836.16 1.464.479 1.887.323.418.795.626 1.415.626a4.05 4.05 0 002.001-.525v1.381a3.124 3.124 0 01-.91.357 5.396 5.396 0 01-1.165.108zm9.426-7.587v1.24h-2.425v6.212h-1.59v-6.212h-2.426v-1.24h6.441zm7.904 1.907c0 .88-.514 1.413-1.543 1.597v.054c.575.067 1.016.249 1.321.545.305.297.458.68.458 1.153 0 .705-.27 1.248-.808 1.63-.535.378-1.314.566-2.339.566h-3.557v-7.452h3.544c1.95 0 2.924.635 2.924 1.907zm-1.388 3.254c0-.36-.139-.613-.417-.761-.279-.153-.697-.23-1.254-.23h-1.826v2.11h1.867c1.087 0 1.63-.373 1.63-1.119zm-.195-3.12c0-.296-.117-.51-.35-.64-.23-.134-.573-.202-1.031-.202h-1.92v1.793h1.684c.53 0 .932-.068 1.206-.203.274-.139.41-.388.41-.747zm6.711 5.546c-1.159 0-2.066-.337-2.722-1.01-.651-.679-.977-1.611-.977-2.797 0-1.217.303-2.174.91-2.87.606-.697 1.44-1.045 2.5-1.045.983 0 1.76.299 2.331.896.57.598.856 1.42.856 2.466v.856H75.55c.022.723.218 1.28.586 1.671.368.387.887.58 1.556.58.44 0 .85-.04 1.227-.122.382-.085.79-.224 1.226-.417v1.287a4.857 4.857 0 01-1.172.39 7.187 7.187 0 01-1.355.115zm-.29-6.523c-.503 0-.907.16-1.212.479-.301.319-.481.784-.54 1.395h3.383c-.009-.616-.157-1.08-.445-1.395-.287-.32-.682-.479-1.185-.479zm6.57-1.064v2.992h3.511v-2.992h1.584v7.452h-1.584v-3.214h-3.51v3.214h-1.584v-7.452h1.583zm8.949 0v2.992h3.51v-2.992h1.584v7.452h-1.584v-3.214h-3.51v3.214h-1.584v-7.452h1.584zm12.028 7.452l-.317-1.037h-.054c-.359.453-.721.763-1.085.93-.364.161-.831.242-1.401.242-.733 0-1.305-.198-1.719-.593-.409-.395-.613-.954-.613-1.678 0-.768.285-1.347.856-1.738.57-.391 1.44-.604 2.608-.64l1.287-.04v-.398c0-.477-.113-.831-.337-1.065-.22-.238-.564-.357-1.031-.357-.382 0-.748.056-1.099.168-.35.113-.687.245-1.01.398l-.512-1.132c.404-.211.846-.37 1.327-.478a5.993 5.993 0 011.361-.169c.948 0 1.662.207 2.143.62.485.413.728 1.062.728 1.947v5.02h-1.132zm-2.359-1.078c.575 0 1.036-.16 1.382-.478.35-.324.525-.775.525-1.355v-.647l-.957.04c-.745.028-1.289.154-1.63.378-.337.22-.506.56-.506 1.018 0 .332.099.59.297.775.197.18.494.27.889.27zm6.462 1.078h-1.772l2.075-3.052c-.503-.144-.898-.4-1.185-.768-.288-.373-.432-.834-.432-1.382 0-.705.252-1.255.755-1.65.503-.4 1.19-.6 2.062-.6h3.396v7.452h-1.59v-2.87h-1.503l-1.806 2.87zm.229-5.188c0 .382.144.67.432.862.292.189.682.283 1.172.283h1.476v-2.21h-1.725c-.432 0-.766.092-1.004.276-.234.185-.351.447-.351.789zm15.337-2.264v1.24h-3.235v6.212h-1.583v-7.452h4.818zm6.098 7.452l-.317-1.037h-.054c-.359.453-.721.763-1.085.93-.364.161-.831.242-1.401.242-.732 0-1.305-.198-1.718-.593-.409-.395-.614-.954-.614-1.678 0-.768.286-1.347.856-1.738.571-.391 1.44-.604 2.608-.64l1.287-.04v-.398c0-.477-.112-.831-.337-1.065-.22-.238-.564-.357-1.031-.357a3.58 3.58 0 00-1.098.168 8.247 8.247 0 00-1.011.398l-.512-1.132c.404-.211.847-.37 1.327-.478a6 6 0 011.361-.169c.948 0 1.662.207 2.143.62.485.413.728 1.062.728 1.947v5.02h-1.132zm-2.359-1.078c.575 0 1.036-.16 1.382-.478.35-.324.525-.775.525-1.355v-.647l-.956.04c-.746.028-1.29.154-1.631.378-.337.22-.506.56-.506 1.018 0 .332.099.59.297.775.198.18.494.27.889.27zm11.826 1.078h-1.597v-6.212h-2.055c-.126 1.599-.297 2.848-.512 3.746-.211.898-.49 1.554-.836 1.968-.341.413-.786.62-1.334.62-.346 0-.636-.05-.869-.149v-1.24c.166.063.332.095.498.095.459 0 .818-.514 1.079-1.543.265-1.033.471-2.612.62-4.737h5.006v7.452zm5.525.135c-1.159 0-2.066-.337-2.722-1.01-.651-.679-.977-1.611-.977-2.797 0-1.217.303-2.174.91-2.87.606-.697 1.44-1.045 2.5-1.045.984 0 1.761.299 2.331.896.571.598.856 1.42.856 2.466v.856h-4.966c.022.723.218 1.28.586 1.671.368.387.887.58 1.557.58.44 0 .849-.04 1.226-.122a6.584 6.584 0 001.226-.417v1.287a4.854 4.854 0 01-1.172.39 7.188 7.188 0 01-1.355.115zm-.289-6.523c-.503 0-.908.16-1.213.479-.301.319-.481.784-.539 1.395h3.382c-.009-.616-.157-1.08-.444-1.395-.288-.32-.683-.479-1.186-.479zm8.766 6.523c-.943 0-1.675-.34-2.196-1.017h-.095c.063.629.095 1.01.095 1.145v3.053h-1.584V29.135h1.28c.036.139.11.471.223.997h.081c.494-.755 1.235-1.132 2.223-1.132.93 0 1.653.337 2.17 1.01.521.675.782 1.62.782 2.838 0 1.217-.265 2.167-.796 2.85-.525.683-1.253 1.024-2.183 1.024zm-.384-6.428c-.629 0-1.089.184-1.381.552-.288.369-.431.957-.431 1.766v.236c0 .907.143 1.565.431 1.974.287.404.757.606 1.408.606.548 0 .97-.224 1.267-.673.296-.45.445-1.09.445-1.92 0-.837-.149-1.468-.445-1.894-.292-.432-.723-.647-1.294-.647zm8.457 6.428c-1.159 0-2.067-.337-2.723-1.01-.651-.679-.977-1.611-.977-2.797 0-1.217.304-2.174.91-2.87.606-.697 1.44-1.045 2.5-1.045.984 0 1.761.299 2.331.896.571.598.856 1.42.856 2.466v.856h-4.966c.022.723.218 1.28.586 1.671.369.387.887.58 1.557.58.44 0 .849-.04 1.226-.122a6.616 6.616 0 001.227-.417v1.287a4.876 4.876 0 01-1.173.39 7.184 7.184 0 01-1.354.115zm-.29-6.523c-.503 0-.907.16-1.213.479-.301.319-.481.784-.539 1.395h3.383c-.009-.616-.158-1.08-.445-1.395-.288-.32-.683-.479-1.186-.479zm5.748 6.388h-1.772l2.075-3.052c-.503-.144-.899-.4-1.186-.768-.288-.373-.431-.834-.431-1.382 0-.705.251-1.255.754-1.65.504-.4 1.191-.6 2.062-.6h3.396v7.452h-1.59v-2.87h-1.502l-1.806 2.87zm.229-5.188c0 .382.144.67.431.862.292.189.683.283 1.173.283h1.475v-2.21h-1.725c-.431 0-.766.092-1.004.276-.233.185-.35.447-.35.789zM0 21.599h11.661c4.6 0 6.953-2.083 6.953-6.048v-.062c0-2.946-1.497-4.736-4.38-5.245v-.278c2.416-.462 3.679-2.036 3.679-4.597v-.077C17.913 1.805 15.714 0 11.412 0H0v21.599zM4.599 8.84V3.055h5.44c2.199 0 3.29.956 3.29 2.838v.062c0 1.913-1.091 2.885-3.29 2.885H4.6zm0 9.689v-6.881h5.581c2.417 0 3.617 1.142 3.617 3.379v.061c0 2.284-1.2 3.44-3.617 3.44H4.6zM22.946 0v21.599h4.537V0h-4.537zm14.029 22c3.664 0 6.33-1.62 7.312-4.366l.312.077c-.593 2.993.03 4.289 3.616 4.289.452 0 .904-.046 1.279-.108l.53-2.669-.78-.015c-.857-.016-1.107-.216-1.107-1.312v-7.42c0-3.672-2.463-5.431-7.717-5.431-5.58 0-8.402 2.175-8.169 5.94l4.475.37c-.187-2.484 1.091-3.61 3.6-3.61 2.246 0 3.306.817 3.306 2.684v.91l-4.427.803c-4.428.817-7.359 2.206-7.359 5.6v.046c0 2.685 1.84 4.212 5.13 4.212zm1.808-2.993c-1.527 0-2.354-.54-2.354-1.65v-.032c0-1.589 1.45-2.237 4.319-2.792l2.884-.555v.755c0 2.484-2.26 4.274-4.849 4.274zm15.058 2.592h4.537V14.07c0-3.64 1.73-5.893 4.599-5.893 2.136 0 3.196 1.095 3.196 3.193V21.6h4.537V10.29c0-3.394-2.012-5.183-5.753-5.183-3.399 0-5.722 1.48-7.093 4.566l-.312-.139c.623-1.836.842-2.93.842-4.134H53.84v16.199zm30.367.386c5.348 0 8.34-2.13 8.793-6.249l-4.584-.509c-.186 2.592-1.62 3.903-4.193 3.903-2.884 0-4.38-1.79-4.38-5.322v-.756c0-3.456 1.511-5.2 4.333-5.2 2.604 0 3.96 1.436 4.163 4.305l4.52-.509c-.358-4.366-3.242-6.634-8.667-6.634-5.893 0-8.996 2.854-8.996 8.316v.2c0 5.554 3.072 8.455 9.011 8.455zm13.312-.386h4.537V14.07c0-3.64 1.715-5.878 4.599-5.878 2.135 0 3.196 1.08 3.196 3.178V21.6h4.536V10.29c0-3.394-2.026-5.183-5.752-5.183-3.43 0-5.737 1.48-7.094 4.55l-.327-.123c.608-1.728.826-3.008.842-4.535V0H97.52v21.599zm26.283.401c3.663 0 6.329-1.62 7.311-4.366l.312.077c-.593 2.993.031 4.289 3.617 4.289a8.02 8.02 0 001.278-.108l.53-2.669-.779-.015c-.858-.016-1.107-.216-1.107-1.312v-7.42c0-3.672-2.463-5.431-7.717-5.431-5.581 0-8.403 2.175-8.169 5.94l4.474.37c-.187-2.484 1.091-3.61 3.601-3.61 2.245 0 3.305.817 3.305 2.684v.91l-4.427.803c-4.428.817-7.359 2.206-7.359 5.6v.046c0 2.685 1.84 4.212 5.13 4.212zm1.808-2.993c-1.528 0-2.354-.54-2.354-1.65v-.032c0-1.589 1.45-2.237 4.318-2.792l2.884-.555v.755c0 2.484-2.26 4.274-4.848 4.274zm15.058 2.592h4.536v-6.773c0-4.227 1.325-5.785 4.786-6.032l2.23-.17-.53-3.733c-3.664.277-5.363 1.419-7.047 4.782l-.296-.139c.733-2.16.904-3.023.873-4.134h-4.552v16.199zm21.574.293c3.367 0 5.566-1.543 6.672-4.335l.328.108c-.53 1.697-.811 3.04-.826 3.934H173V0h-4.537v4.397c0 1.697.234 3.07.795 4.937l-.311.123c-1.107-2.777-3.321-4.381-6.704-4.381-4.677 0-7.14 2.823-7.14 8.223v.385c0 5.385 2.463 8.208 7.14 8.208zm1.715-2.777c-2.806 0-4.272-1.774-4.272-5.276v-.71c0-3.518 1.466-5.307 4.272-5.307 2.931 0 4.505 1.882 4.505 5.384v.556c0 3.486-1.574 5.353-4.505 5.353z" fill="#fff"/></symbol></svg>